<svg viewBox="0 0 143 43" fill="none" xmlns="http://www.w3.org/2000/svg">
<path d="M25.1567 9.73243V30.8197C25.1567 38.0063 20.3918 42.7329 13.2182 42.7329C7.2331 42.7329 2.92049 39.3061 1.55308 33.8383H6.9491C7.99043 35.3637 10.3992 36.3412 13.2076 36.3412C17.2888 36.3412 19.929 34.1605 19.929 30.7767V28.0374C18.2039 31.1419 15.2588 33.14 11.5352 33.14C5.1399 33.14 0.375 27.9515 0.375 21.1408C0.375 14.3302 5.1399 9.18457 11.5352 9.18457C15.2588 9.18457 18.2039 11.1289 19.929 14.2872V9.74317H25.1462L25.1567 9.73243ZM19.9395 21.1301C19.9395 17.9288 16.9417 15.5226 12.8605 15.5226C8.77932 15.5226 5.73946 17.9288 5.73946 21.1301C5.73946 24.3313 8.77932 26.7376 12.8605 26.7376C16.9417 26.7376 19.9395 24.3313 19.9395 21.1301Z" fill="white"/>
<path d="M30.3203 0H35.4954V33.3657H30.3203V0Z" fill="white"/>
<path d="M40.8086 9.73145H45.9837V33.3646H40.8086V9.73145Z" fill="white"/>
<path d="M73.7949 18.1652V33.3656H68.6197V20.4318C68.6197 17.6925 66.3056 15.9308 62.7188 15.9308C59.132 15.9308 56.4603 17.7355 56.4603 20.5178V33.3549H51.2852V9.73243H56.4603V14.6954C58.2274 11.086 61.1831 9.18457 64.9488 9.18457C70.2606 9.18457 73.7949 12.751 73.7949 18.1759V18.1652Z" fill="white"/>
<path d="M85.775 16.3606V24.3744C85.775 25.9535 86.7322 26.6947 88.7202 26.6947H92.0336V33.3657H88.1312C83.1349 33.3657 80.5578 30.9057 80.5578 25.9965V16.3606H76.0664V9.73253H80.5578V4.26467L85.775 2.78223V9.73253H92.4964V16.3606H85.775Z" fill="white"/>
<path d="M115.448 26.7376V33.3656H95.4316V28.6819L106.781 16.3497H95.621V9.72168H115.133V14.4053L103.741 26.7376H115.448Z" fill="white"/>
<path d="M129.879 9.17383C122.758 9.17383 117.404 14.502 117.404 21.549C117.404 28.596 122.758 33.9242 129.879 33.9242C137 33.9242 142.354 28.596 142.354 21.549C142.354 14.502 137 9.17383 129.879 9.17383ZM129.848 30.5404C129.585 28.1878 128.743 26.1253 127.081 24.4602C125.451 22.8166 123.473 21.9035 121.149 21.6457C126.208 20.8293 129.08 17.8322 129.869 12.5577C130.647 17.8429 133.529 20.8293 138.599 21.6135C133.529 22.3977 130.647 25.384 129.848 30.5404Z" fill="white"/>
<path d="M46.394 3.11528C44.6479 3.38384 43.6592 4.41511 43.3857 6.18759C43.291 5.38192 43.007 4.67292 42.439 4.09284C41.8816 3.52349 41.1978 3.21196 40.3984 3.12602C42.134 2.84672 43.1227 1.81546 43.3962 0C43.6592 1.81546 44.6479 2.84672 46.394 3.11528Z" fill="white"/>
</svg>
